Sanctuary S3E11 HDTV DD5.1 ENG+NL Subs

Verenigde Staten / Canada ~ 60 minuten ~ geschreven door Damian Kindler ~ met Amanda Tapping, Robin Dunne en Christopher Heyerdahl.

Magnus word nieuw leven ingeblazen om Ranna's vragen te beantwoorden en vind snel uit dat ondanks Ranna's pogingen the stad in grote problemen verkeerd. Het vallen van Praxis kan ook de oppervlakte bedreigen, maar Magnus is in staat om te helpen. Magnus en Ranna komen tot overeenkomst en ze brengt de rest van de groep tot leven. Magnus slaagt erin de stad te redden met de hulp van Gregory Magnus. Ondertussen probeert Will Adam's plam te verstoren dat voor grote problemen kan zorgen.

Bestandsformaat: .MKV
Bestandsgrootte: 1,09 GB
Taal: Engels in DD5.1
Ondertitelingen: Engels en Nederlands ~ custom door r3po (in te stellen)
Categorie : Serie
Formaat : NVT
Bron : HDTV
Menu: Nee
Extra's: Nee
Genre : Science-Fiction ~ Misdaad ~ Mysterie
Weblink :  http://www.imdb.com/title/tt0965394/

~~~~~~~~~~~~~~~~~~~~~~
USA / Canada ~ 60 minutes ~ written by Damian Kindler ~ with Amanda Tapping, Robin Dunne and Christopher Heyerdahl

Magnus is revived to answer Ranna's questions and soon figures out that despite Ranna's efforts the city is in great deal of trouble and the fall of Praxis could also threaten the surface world however Magnus is able to help. Magnus and Ranna makes an understanding to help and she revives rest of the gang. Magnus manages to save the city with the help from Gregory Magnus meanwhile Will tries to breakdown Adam's plan that can cause huge trouble. 

File Format: .MKV
File size: 1.09 GB
Language: English in DD5.1
Subtitles: English and Dutch ~ custom (selectable)
Category : Series
Format : -
Source : HDTV
Menu: No
Extras: No
Genre : Science-Fiction ~ Crime ~ Mystery
Weblink :  http://www.imdb.com/title/tt0965394/

Video and audio information:
~~~~~~~~~~~~~~~~~~~~~~
Video
ID                               : 2
Format                           : AVC
Format/Info                      : Advanced Video Codec
Format profile                   : High@L3.1
Format settings, CABAC           : Yes
Format settings, ReFrames        : 3 frames
Codec ID                         : V_MPEG4/ISO/AVC
Duration                         : 43mn 14s
Bit rate                         : 3 232 Kbps
Width                            : 1 280 pixels
Height                           : 720 pixels
Display aspect ratio             : 16:9
Frame rate                       : 23.976 fps
Color space                      : YUV
Chroma subsampling               : 4:2:0
Bit depth                        : 8 bits
Scan type                        : Progressive
Bits/(Pixel*Frame)               : 0.146
Stream size                      : 977 MiB (87%)
Writing library                  : x264 core 85 r1442tw
Encoding settings                : cabac=1 / ref=3 / deblock=1:0:0 / analyse=0x3:0x113 / me=hex / subme=6 / psy=1 / psy_rd=1.00:0.00 / mixed_ref=0 / me_range=16 / chroma_me=1 / trellis=1 / 8x8dct=1 / cqm=0 / deadzone=21,11 / fast_pskip=1 / chroma_qp_offset=-2 / threads=30 / sliced_threads=0 / nr=0 / decimate=1 / mbaff=0 / constrained_intra=0 / bframes=6 / b_pyramid=1 / b_adapt=1 / b_bias=0 / direct=1 / wpredb=1 / wpredp=0 / keyint=240 / keyint_min=24 / scenecut=40 / intra_refresh=0 / rc_lookahead=40 / rc=2pass / mbtree=1 / bitrate=3232 / ratetol=1.0 / qcomp=0.60 / qpmin=10 / qpmax=51 / qpstep=4 / cplxblur=20.0 / qblur=0.5 / ip_ratio=1.40 / aq=1:1.00
Language                         : English

Audio
ID                               : 1
Format                           : AC-3
Format/Info                      : Audio Coding 3
Mode extension                   : CM (complete main)
Codec ID                         : A_AC3
Duration                         : 43mn 14s
Bit rate mode                    : Constant
Bit rate                         : 384 Kbps
Channel(s)                       : 6 channels
Channel positions                : Front: L C R, Side: L R, LFE
Sampling rate                    : 48.0 KHz
Bit depth                        : 16 bits
Compression mode                 : Lossy
Stream size                      : 119 MiB (11%)

~~~~~~~~~~~~~~~
Hornigold TBS
~~~~~~~~~~~~~~~